<?xml version="1.0"?>
<svg xmlns="http://www.w3.org/2000/svg" id="Layer_3" enable-background="new 0 0 64 64" height="512px" viewBox="0 0 64 64" width="512px" class=""><g><g><path d="m62 28h-1.3c-1.769-12.753-11.947-22.931-24.7-24.7v-1.3c0-.552-.448-1-1-1h-6c-.552 0-1 .448-1 1v1.3c-12.753 1.769-22.931 11.947-24.7 24.7h-1.3c-.552 0-1 .448-1 1v6c0 .552.448 1 1 1h1.3c1.769 12.753 11.947 22.931 24.7 24.7v1.3c0 .552.448 1 1 1h6c.552 0 1-.448 1-1v-1.3c12.753-1.769 22.931-11.947 24.7-24.7h1.3c.552 0 1-.448 1-1v-6c0-.552-.448-1-1-1zm-3.32 0h-1.68c-.06 0-.12.005-.179.016l-.154.028c-1.696-10.67-10.041-19.015-20.711-20.711l.028-.154c.011-.059.016-.119.016-.179v-1.68c11.653 1.741 20.939 11.027 22.68 22.68zm-12.859 5.984 8.88 1.615c-.719 4.579-2.766 8.691-5.746 11.942l-7.248-7.248-1.414 1.414 7.248 7.248c-3.252 2.98-7.363 5.027-11.942 5.746l-1.615-8.88c-.087-.475-.501-.821-.984-.821h-2c-.483 0-.897.346-.984.821l-1.615 8.88c-4.579-.719-8.691-2.766-11.942-5.746l7.248-7.248-1.414-1.414-7.248 7.248c-2.98-3.252-5.027-7.363-5.746-11.942l8.88-1.615c.475-.087.821-.501.821-.984v-2c0-.483-.346-.897-.821-.984l-8.887-1.616c.718-4.542 2.783-8.655 5.775-11.919l7.225 7.225 1.414-1.414-7.227-7.227c3.253-2.987 7.363-5.047 11.922-5.766l1.614 8.878c.088.477.502.823.985.823h2c.483 0 .897-.346.984-.821l1.615-8.88c4.579.719 8.691 2.766 11.942 5.746l-7.248 7.248 1.414 1.414 7.248-7.248c2.98 3.252 5.027 7.363 5.746 11.942l-8.88 1.615c-.475.087-.821.501-.821.984v2c0 .483.346.897.821.984zm-15.821-30.984h4v3.91l-1.834 10.09h-.331l-1.835-10.09zm-2 2.32v1.68c0 .06.005.12.016.179l.028.156c-10.634 1.697-19.028 10.14-20.72 20.708l-.145-.026c-.059-.012-.119-.017-.179-.017h-1.68c1.741-11.653 11.027-20.939 22.68-22.68zm-25 24.68h3.91l10.09 1.834v.331l-10.09 1.835h-3.91zm2.32 6h1.68c.06 0 .12-.005.179-.016l.154-.028c1.696 10.671 10.041 19.015 20.711 20.711l-.028.154c-.011.059-.016.119-.016.179v1.68c-11.653-1.741-20.939-11.027-22.68-22.68zm28.68 25h-4v-3.91l1.834-10.09h.331l1.835 10.09zm2-2.32v-1.68c0-.06-.005-.12-.016-.179l-.028-.154c10.671-1.696 19.015-10.041 20.711-20.711l.154.028c.059.011.119.016.179.016h1.68c-1.741 11.653-11.027 20.939-22.68 22.68zm25-24.68h-3.91l-10.09-1.834v-.331l10.09-1.835h3.91z" data-original="#000000" class="active-path" data-old_color="#000000" fill="#00117A"/><path d="m41 25h-1v-2h-2v2h-15c-.552 0-1 .448-1 1v4c0 .552.448 1 1 1h.719l-1.689 6.757c-.075.299-.007.615.182.858s.48.385.788.385h5c.459 0 .859-.312.97-.757l.811-3.243h3.219c.552 0 1-.448 1-1v-3h7c.552 0 1-.448 1-1v-4c0-.552-.448-1-1-1zm-13.781 12h-2.938l1.5-6h2.938zm4.781-4h-1.719l.5-2h1.219zm8-4h-16v-2h16z" data-original="#000000" class="active-path" data-old_color="#000000" fill="#00117A"/></g></g> </svg>
