<?xml version="1.0"?>
<svg xmlns="http://www.w3.org/2000/svg" xmlns:xlink="http://www.w3.org/1999/xlink" version="1.1" id="Capa_1" x="0px" y="0px" viewBox="0 0 512 512" style="enable-background:new 0 0 512 512;" xml:space="preserve" width="512px" height="512px" class=""><g><g>
	<path d="M448,448h-88v-24c0-4.418-3.582-8-8-8h-24v-24c0-4.418-3.582-8-8-8h-24v-24c0-4.418-3.582-8-8-8h-8V139.872   c27.934-9.907,48-36.584,48-67.872c0-39.701-32.299-72-72-72s-72,32.299-72,72c0,31.288,20.066,57.964,48,67.872V352h-8   c-4.418,0-8,3.582-8,8v24h-24c-4.418,0-8,3.582-8,8v24h-24c-4.418,0-8,3.582-8,8v24H64c-13.234,0-24,10.766-24,24v16   c0,13.234,10.766,24,24,24h384c13.234,0,24-10.766,24-24v-16C472,458.766,461.234,448,448,448z M200,72c0-30.878,25.122-56,56-56   s56,25.122,56,56s-25.122,56-56,56S200,102.878,200,72z M248,143.545c2.628,0.292,5.295,0.455,8,0.455s5.372-0.163,8-0.455V352h-16   V143.545z M232,368h48v16h-48V368z M200,400h112v16H200V400z M168,432h176v16H168V432z M456,488c0,4.411-3.589,8-8,8H64   c-4.411,0-8-3.589-8-8v-16c0-4.411,3.589-8,8-8h384c4.411,0,8,3.589,8,8V488z" data-original="#000000" class="active-path" data-old_color="#000000" fill="#00117A"/>
	<path d="M280,72c0,4.418,3.582,8,8,8s8-3.582,8-8c0-22.056-17.944-40-40-40c-4.418,0-8,3.582-8,8s3.582,8,8,8   C269.234,48,280,58.766,280,72z" data-original="#000000" class="active-path" data-old_color="#000000" fill="#00117A"/>
</g></g> </svg>
