<?xml version="1.0"?>
<svg xmlns="http://www.w3.org/2000/svg" id="Capa_1" enable-background="new 0 0 354.057 354.057" height="512px" viewBox="0 0 354.057 354.057" width="512px"><g><path d="m1.306 78.916c-1.121 1.393-1.552 3.216-1.168 4.963l9.081 41.524c9.636 44.038 27.51 85.268 52.996 122.691l-52.14 52.14c-6.904 6.898-6.904 18.133 0 25.032l18.718 18.718c3.452 3.452 7.984 5.175 12.516 5.175s9.064-1.723 12.516-5.175l47.762-47.762c21.727 22.223 46.045 41.418 72.439 57.014.926.549 1.965.82 3.004.82s2.077-.271 3.004-.82c83.911-49.585 143.976-132.628 164.806-227.833l9.081-41.524c.378-1.747-.047-3.57-1.168-4.963-1.115-1.393-2.809-2.201-4.597-2.201-3.505 0-7.099-.13-10.716-.33l16.458-69.117c.478-1.989-.118-4.089-1.57-5.535s-3.558-2.048-5.535-1.57l-123.921 29.504c-1.103.26-2.054.885-2.832 1.694l-39.424-30.148c-2.113-1.617-5.051-1.617-7.17 0l-44.068 33.694c-35.252 26.961-79.101 41.808-123.476 41.808-1.788 0-3.475.808-4.596 2.201zm74.539 94.804c-3.9-10.486-7.128-21.296-9.512-32.201l-4.91-22.429c31.127-1.499 61.523-12.551 86.2-31.428l29.215-21.22 9.489 7.665-92.443 117.652zm-.861 15.826 89.528 89.528-26.701 3.812-15.614-15.614-35.405-35.405-15.614-15.614zm262.601-164.729-24.199 101.637-159.49 125.316-21.633-21.633zm-156.385 254.257-18.901-18.901 112.205-88.159c-19.626 56.188-48.836 92.573-97.471 122.054-2.089-1.275-4.142-2.632-6.202-3.977l7.034-1.003c2.213-.313 4.06-1.853 4.762-3.971s.154-4.462-1.427-6.043zm-86.784 7.63-27.061-27.061 15.26-15.26 27.061 27.061zm-48.936 48.936c-2.231 2.225-6.113 2.225-8.344 0l-18.718-18.718c-1.109-1.115-1.723-2.596-1.723-4.172s.614-3.057 1.723-4.172l40.592-40.592 27.061 27.061zm295.374-247.253-7.547 34.491c-19.88 90.879-76.753 170.288-156.279 218.403-24.388-14.758-46.9-32.72-67.099-53.403l8.09-8.09 13.531 13.531c1.115 1.115 2.62 1.729 4.172 1.729.277 0 .555-.018.838-.059l17.018-2.431c6.627 4.797 13.472 9.353 20.447 13.472.926.549 1.965.82 3.004.82s2.077-.271 3.004-.82c57.947-34.243 90.23-76.977 111.114-147.091l31.151-24.477c1.05-.82 1.788-1.977 2.095-3.275l10.279-43.183c2.063.135 4.14.312 6.182.383zm-11.613-71.914-54.341 54.341h-62.467v11.802h50.665l-11.802 11.802h-50.665v11.802h38.863l-115.574 115.574-21.633-21.633 125.317-159.489zm-192.693 27.817 40.48-30.956 35.635 27.25-19.048 24.241-12.882-10.403c-2.089-1.688-5.028-1.753-7.175-.183l-32.992 23.963c-24.678 18.871-55.374 29.262-86.442 29.262-1.788 0-3.476.808-4.597 2.201s-1.552 3.216-1.168 4.963l6.438 29.416c2.502 11.424 5.854 22.76 9.943 33.741l-5.671 39.713c-.266 1.841.354 3.694 1.67 5.01l13.531 13.531-3.546 3.546c-23.963-35.683-40.828-74.876-49.975-116.708l-7.541-34.485c44.439-1.539 87.976-17.064 123.34-44.102z" data-original="#000000" class="active-path" data-old_color="#000000" fill="#00117A"/><path d="m330.451 218.336h11.802v11.802h-11.802z" data-original="#000000" class="active-path" data-old_color="#000000" fill="#00117A"/><path d="m318.649 230.138h11.802v11.802h-11.802z" data-original="#000000" class="active-path" data-old_color="#000000" fill="#00117A"/><path d="m342.252 230.138h11.802v11.802h-11.802z" data-original="#000000" class="active-path" data-old_color="#000000" fill="#00117A"/><path d="m330.451 241.94h11.802v11.802h-11.802z" data-original="#000000" class="active-path" data-old_color="#000000" fill="#00117A"/><path d="m306.847 300.948h11.802v11.802h-11.802z" data-original="#000000" class="active-path" data-old_color="#000000" fill="#00117A"/><path d="m295.045 312.75h11.802v11.802h-11.802z" data-original="#000000" class="active-path" data-old_color="#000000" fill="#00117A"/><path d="m318.649 312.75h11.802v11.802h-11.802z" data-original="#000000" class="active-path" data-old_color="#000000" fill="#00117A"/><path d="m306.847 324.552h11.802v11.802h-11.802z" data-original="#000000" class="active-path" data-old_color="#000000" fill="#00117A"/><path d="m35.407.004h11.802v11.802h-11.802z" data-original="#000000" class="active-path" data-old_color="#000000" fill="#00117A"/><path d="m23.605 11.805h11.802v11.802h-11.802z" data-original="#000000" class="active-path" data-old_color="#000000" fill="#00117A"/><path d="m47.209 11.805h11.802v11.802h-11.802z" data-original="#000000" class="active-path" data-old_color="#000000" fill="#00117A"/><path d="m35.407 23.607h11.802v11.802h-11.802z" data-original="#000000" class="active-path" data-old_color="#000000" fill="#00117A"/><path d="m247.838 312.75h11.802v11.802h-11.802z" data-original="#000000" class="active-path" data-old_color="#000000" fill="#00117A"/><path d="m82.614 5.904h11.802v11.802h-11.802z" data-original="#000000" class="active-path" data-old_color="#000000" fill="#00117A"/><path d="m.001 53.111h11.802v11.802h-11.802z" data-original="#000000" class="active-path" data-old_color="#000000" fill="#00117A"/><path d="m342.252 342.255h11.802v11.802h-11.802z" data-original="#000000" class="active-path" data-old_color="#000000" fill="#00117A"/></g> </svg>
